<svg viewBox="0 0 600 400" xmlns="http://www.w3.org/2000/svg">
<g transform="translate(72, 364)">
<g>
<g>
<path d="M0,-0 L0,-0 L5.393258,-0.09472686 L10.786516,-0.46936607 L16.179775,-1.2815516 L21.573032,-2.644921 L26.96629,-4.6336703 L32.35955,-7.28684 L37.752808,-10.612968 L43.146065,-14.594821 L48.539326,-19.194025 L53.93258,-24.35558 L59.32584,-30.01207 L64.7191,-36.087585 L70.11236,-42.501244 L75.505615,-49.170334 L80.89887,-56.013035 L86.29213,-62.95067 L91.68539,-69.90961 L97.07865,-76.822716 L102.4719,-83.630394 L107.86516,-90.28139 L113.25843,-96.73312 L118.65168,-102.95182 L124.04493,-108.91246 L129.4382,-114.598366 L134.83145,-120.000694 L140.22472,-125.11789 L145.61797,-129.95485 L151.01123,-134.52219 L156.4045,-138.83533 L161.79774,-142.91367 L167.19101,-146.77979 L172.58426,-150.45842 L177.97751,-153.97595 L183.37077,-157.35954 L188.76404,-160.63637 L194.1573,-163.83322 L199.55055,-167.02028 L204.9438,-170.11491 L210.33707,-172.78964 L215.73032,-174.88608 L221.12358,-176.45876 L226.51686,-177.55434 L231.91011,-178.21248 L237.30336,-178.70293 L242.69661,-179.52618 L248.08986,-180.92216 L253.48314,-182.87363 L258.8764,-185.36131 L264.26965,-188.35963 L269.6629,-191.83669 L275.05615,-195.7555 L280.44943,-200.07527 L285.84268,-204.7525 L291.23593,-209.74219 L296.62918,-214.99869 L302.02246,-220.0891 L307.41574,-224.24733 L312.809,-227.21385 L318.20224,-229.16277 L323.5955,-230.2507 L328.98874,-231.01132 L334.38202,-232.30345 L339.77527,-234.48898 L345.16852,-237.48938 L350.56177,-241.2317 L355.95502,-245.64043 L361.3483,-250.63713 L366.74155,-256.1422 L372.13483,-262.0766 L377.52808,-268.36298 L382.92133,-274.4618 L388.3146,-279.43927 L393.70786,-282.97345 L399.1011,-285.2666 L404.49435,-286.50357 L409.8876,-286.86902 L415.28088,-286.54303 L420.67413,-286.14633 L426.06738,-286.67514 L431.46063,-288.52322 L436.8539,-291.55908 L442.24716,-295.6592 L447.64044,-300.69904 L453.03372,-306.55267 L458.42694,-313.0955 L463.82022,-320.20605 L469.21344,-327.2312 L474.60672,-333.04913 L480,-337.23062" fill="none" stroke="#FF0000" stroke-linejoin="round" stroke-width="2"/>
</g>
</g>
<g transform="translate(380, -340)">
<text font-size="12" text-anchor="start" x="0" y="0">
Arkadaki Araç Mutlak Mesafesi
</text>
<line stroke="#FF0000" stroke-width="2" x1="-10" x2="-3" y1="-4" y2="-4"/>
</g>
<g>
<g>
<path d="M0,-54.07078 L0,-54.07078 L5.393258,-54.141827 L10.786516,-54.422806 L16.179775,-55.031944 L21.573032,-56.054474 L26.96629,-57.546036 L32.35955,-59.53591 L37.752808,-62.030506 L43.146065,-65.0169 L48.539326,-68.46629 L53.93258,-72.337456 L59.32584,-76.579834 L64.7191,-81.13646 L70.11236,-85.94669 L75.505615,-90.94851 L80.89887,-96.080536 L86.29213,-101.28376 L91.68539,-106.50296 L97.07865,-111.6878 L102.4719,-116.793564 L107.86516,-121.78182 L113.25843,-126.62062 L118.65168,-131.28465 L124.04493,-135.75511 L129.4382,-140.01953 L134.83145,-144.07124 L140.22472,-147.90913 L145.61797,-151.53683 L151.01123,-154.9623 L156.4045,-158.19713 L161.79774,-161.25584 L167.19101,-164.15541 L172.58426,-166.9144 L177.97751,-169.55255 L183.37077,-172.09026 L188.76404,-174.54787 L194.1573,-176.94553 L199.55055,-179.30252 L204.9438,-181.63713 L210.33707,-183.96635 L215.73032,-186.30556 L221.12358,-188.66855 L226.51686,-191.06728 L231.91011,-193.51189 L237.30336,-196.01067 L242.69661,-198.57014 L248.08986,-201.19507 L253.48314,-203.88857 L258.8764,-206.65215 L264.26965,-209.48605 L269.6629,-212.38918 L275.05615,-215.35938 L280.44943,-218.3935 L285.84268,-221.48764 L291.23593,-224.63725 L296.62918,-227.83737 L302.02246,-231.08264 L307.41574,-234.36757 L312.809,-237.68645 L318.20224,-241.03372 L323.5955,-244.40395 L328.98874,-247.79187 L334.38202,-251.19255 L339.77527,-254.60129 L345.16852,-258.0139 L350.56177,-261.42645 L355.95502,-264.83566 L361.3483,-268.23853 L366.74155,-271.6325 L372.13483,-275.01556 L377.52808,-278.38605 L382.92133,-281.7427 L388.3146,-285.08463 L393.70786,-288.41138 L399.1011,-291.7227 L404.49435,-295.01874 L409.8876,-298.29984 L415.28088,-301.56656 L420.67413,-304.8196 L426.06738,-308.0599 L431.46063,-311.28842 L436.8539,-314.5063 L442.24716,-317.71448 L447.64044,-320.91434 L453.03372,-324.10693 L458.42694,-327.2934 L463.82022,-330.47495 L469.21344,-333.65253 L474.60672,-336.82727 L480,-340" fill="none" stroke="#00FF00" stroke-linejoin="round" stroke-width="2"/>
</g>
</g>
<g transform="translate(380, -322)">
<text font-size="12" text-anchor="start" x="0" y="0">
Öndeki Araç Mutlak Mesafesi
</text>
<line stroke="#00FF00" stroke-width="2" x1="-10" x2="-3" y1="-4" y2="-4"/>
</g>
<g>
<g>
<line stroke="black" stroke-width="1" x1="0" x2="0" y1="0" y2="10"/>
<line stroke="black" stroke-width="1" x1="107.8651616043887" x2="107.8651616043887" y1="0" y2="10"/>
<line stroke="black" stroke-width="1" x1="215.7303232087774" x2="215.7303232087774" y1="0" y2="10"/>
<line stroke="black" stroke-width="1" x1="323.5954848131661" x2="323.5954848131661" y1="0" y2="10"/>
<line stroke="black" stroke-width="1" x1="431.4606464175548" x2="431.4606464175548" y1="0" y2="10"/>
</g>
<line stroke="black" stroke-width="1" x1="0" x2="480" y1="0" y2="0"/>
<g>
<text font-size="12" text-anchor="middle" x="0" y="20">
0
</text>
<text font-size="12" text-anchor="middle" x="107.8651616043887" y="20">
2
</text>
<text font-size="12" text-anchor="middle" x="215.7303232087774" y="20">
4
</text>
<text font-size="12" text-anchor="middle" x="323.5954848131661" y="20">
6
</text>
<text font-size="12" text-anchor="middle" x="431.4606464175548" y="20">
8
</text>
</g>
<text font-size="12" text-anchor="middle" x="240" y="30">
Time (seconds)
</text>
</g>
<g>
<g>
<line stroke="black" stroke-width="1" x1="0" x2="-10" y1="-0" y2="-0"/>
<line stroke="black" stroke-width="1" x1="0" x2="-10" y1="-108.14156151587969" y2="-108.14156151587969"/>
<line stroke="black" stroke-width="1" x1="0" x2="-10" y1="-216.28312303175937" y2="-216.28312303175937"/>
<line stroke="black" stroke-width="1" x1="0" x2="-10" y1="-324.42468454763906" y2="-324.42468454763906"/>
</g>
<line stroke="black" stroke-width="1" x1="0" x2="0" y1="0" y2="-340"/>
<g>
<text dominant-baseline="middle" font-size="12" text-anchor="end" x="-15" y="-0">
0
</text>
<text dominant-baseline="middle" font-size="12" text-anchor="end" x="-15" y="-108.14156151587969">
100
</text>
<text dominant-baseline="middle" font-size="12" text-anchor="end" x="-15" y="-216.28312303175937">
200
</text>
<text dominant-baseline="middle" font-size="12" text-anchor="end" x="-15" y="-324.42468454763906">
300
</text>
</g>
<text font-size="12" text-anchor="middle" transform="rotate(-90 -36 -170)" x="-36" y="-182">
Absolute Position (m)
</text>
</g>
</g>
</svg>