<svg viewBox="0 0 600 400" xmlns="http://www.w3.org/2000/svg">
<g transform="translate(72, 364)">
<g>
<line stroke="darkgrey" stroke-width="1" x1="0" x2="480" y1="-0" y2="-0"/>
<line stroke="darkgrey" stroke-width="1" x1="0" x2="480" y1="-28.333333333333332" y2="-28.333333333333332"/>
<line stroke="darkgrey" stroke-width="1" x1="0" x2="480" y1="-56.666666666666664" y2="-56.666666666666664"/>
<line stroke="darkgrey" stroke-width="1" x1="0" x2="480" y1="-85" y2="-85"/>
<line stroke="darkgrey" stroke-width="1" x1="0" x2="480" y1="-113.33333333333333" y2="-113.33333333333333"/>
<line stroke="darkgrey" stroke-width="1" x1="0" x2="480" y1="-141.66666666666666" y2="-141.66666666666666"/>
<line stroke="darkgrey" stroke-width="1" x1="0" x2="480" y1="-170" y2="-170"/>
<line stroke="darkgrey" stroke-width="1" x1="0" x2="480" y1="-198.33333333333331" y2="-198.33333333333331"/>
<line stroke="darkgrey" stroke-width="1" x1="0" x2="480" y1="-226.66666666666666" y2="-226.66666666666666"/>
<line stroke="darkgrey" stroke-width="1" x1="0" x2="480" y1="-255" y2="-255"/>
<line stroke="darkgrey" stroke-width="1" x1="0" x2="480" y1="-283.3333333333333" y2="-283.3333333333333"/>
<line stroke="darkgrey" stroke-width="1" x1="0" x2="480" y1="-311.66666666666663" y2="-311.66666666666663"/>
<line stroke="darkgrey" stroke-width="1" x1="0" x2="480" y1="-340" y2="-340"/>
<line stroke="darkgrey" stroke-width="1" x1="0" x2="0" y1="0" y2="-340"/>
<line stroke="darkgrey" stroke-width="1" x1="5.393258426966292" x2="5.393258426966292" y1="0" y2="-340"/>
<line stroke="darkgrey" stroke-width="1" x1="10.786516853932584" x2="10.786516853932584" y1="0" y2="-340"/>
<line stroke="darkgrey" stroke-width="1" x1="16.179775280898877" x2="16.179775280898877" y1="0" y2="-340"/>
<line stroke="darkgrey" stroke-width="1" x1="21.573033707865168" x2="21.573033707865168" y1="0" y2="-340"/>
<line stroke="darkgrey" stroke-width="1" x1="26.96629213483146" x2="26.96629213483146" y1="0" y2="-340"/>
<line stroke="darkgrey" stroke-width="1" x1="32.359550561797754" x2="32.359550561797754" y1="0" y2="-340"/>
<line stroke="darkgrey" stroke-width="1" x1="37.752808988764045" x2="37.752808988764045" y1="0" y2="-340"/>
<line stroke="darkgrey" stroke-width="1" x1="43.146067415730336" x2="43.146067415730336" y1="0" y2="-340"/>
<line stroke="darkgrey" stroke-width="1" x1="48.53932584269663" x2="48.53932584269663" y1="0" y2="-340"/>
<line stroke="darkgrey" stroke-width="1" x1="53.93258426966292" x2="53.93258426966292" y1="0" y2="-340"/>
<line stroke="darkgrey" stroke-width="1" x1="59.32584269662921" x2="59.32584269662921" y1="0" y2="-340"/>
<line stroke="darkgrey" stroke-width="1" x1="64.71910112359551" x2="64.71910112359551" y1="0" y2="-340"/>
<line stroke="darkgrey" stroke-width="1" x1="70.11235955056179" x2="70.11235955056179" y1="0" y2="-340"/>
<line stroke="darkgrey" stroke-width="1" x1="75.50561797752809" x2="75.50561797752809" y1="0" y2="-340"/>
<line stroke="darkgrey" stroke-width="1" x1="80.89887640449437" x2="80.89887640449437" y1="0" y2="-340"/>
<line stroke="darkgrey" stroke-width="1" x1="86.29213483146067" x2="86.29213483146067" y1="0" y2="-340"/>
<line stroke="darkgrey" stroke-width="1" x1="91.68539325842697" x2="91.68539325842697" y1="0" y2="-340"/>
<line stroke="darkgrey" stroke-width="1" x1="97.07865168539325" x2="97.07865168539325" y1="0" y2="-340"/>
<line stroke="darkgrey" stroke-width="1" x1="102.47191011235955" x2="102.47191011235955" y1="0" y2="-340"/>
<line stroke="darkgrey" stroke-width="1" x1="107.86516853932584" x2="107.86516853932584" y1="0" y2="-340"/>
<line stroke="darkgrey" stroke-width="1" x1="113.25842696629213" x2="113.25842696629213" y1="0" y2="-340"/>
<line stroke="darkgrey" stroke-width="1" x1="118.65168539325842" x2="118.65168539325842" y1="0" y2="-340"/>
<line stroke="darkgrey" stroke-width="1" x1="124.04494382022472" x2="124.04494382022472" y1="0" y2="-340"/>
<line stroke="darkgrey" stroke-width="1" x1="129.43820224719101" x2="129.43820224719101" y1="0" y2="-340"/>
<line stroke="darkgrey" stroke-width="1" x1="134.8314606741573" x2="134.8314606741573" y1="0" y2="-340"/>
<line stroke="darkgrey" stroke-width="1" x1="140.22471910112358" x2="140.22471910112358" y1="0" y2="-340"/>
<line stroke="darkgrey" stroke-width="1" x1="145.61797752808988" x2="145.61797752808988" y1="0" y2="-340"/>
<line stroke="darkgrey" stroke-width="1" x1="151.01123595505618" x2="151.01123595505618" y1="0" y2="-340"/>
<line stroke="darkgrey" stroke-width="1" x1="156.40449438202248" x2="156.40449438202248" y1="0" y2="-340"/>
<line stroke="darkgrey" stroke-width="1" x1="161.79775280898875" x2="161.79775280898875" y1="0" y2="-340"/>
<line stroke="darkgrey" stroke-width="1" x1="167.19101123595505" x2="167.19101123595505" y1="0" y2="-340"/>
<line stroke="darkgrey" stroke-width="1" x1="172.58426966292134" x2="172.58426966292134" y1="0" y2="-340"/>
<line stroke="darkgrey" stroke-width="1" x1="177.97752808988764" x2="177.97752808988764" y1="0" y2="-340"/>
<line stroke="darkgrey" stroke-width="1" x1="183.37078651685394" x2="183.37078651685394" y1="0" y2="-340"/>
<line stroke="darkgrey" stroke-width="1" x1="188.7640449438202" x2="188.7640449438202" y1="0" y2="-340"/>
<line stroke="darkgrey" stroke-width="1" x1="194.1573033707865" x2="194.1573033707865" y1="0" y2="-340"/>
<line stroke="darkgrey" stroke-width="1" x1="199.5505617977528" x2="199.5505617977528" y1="0" y2="-340"/>
<line stroke="darkgrey" stroke-width="1" x1="204.9438202247191" x2="204.9438202247191" y1="0" y2="-340"/>
<line stroke="darkgrey" stroke-width="1" x1="210.33707865168537" x2="210.33707865168537" y1="0" y2="-340"/>
<line stroke="darkgrey" stroke-width="1" x1="215.73033707865167" x2="215.73033707865167" y1="0" y2="-340"/>
<line stroke="darkgrey" stroke-width="1" x1="221.12359550561797" x2="221.12359550561797" y1="0" y2="-340"/>
<line stroke="darkgrey" stroke-width="1" x1="226.51685393258427" x2="226.51685393258427" y1="0" y2="-340"/>
<line stroke="darkgrey" stroke-width="1" x1="231.91011235955057" x2="231.91011235955057" y1="0" y2="-340"/>
<line stroke="darkgrey" stroke-width="1" x1="237.30337078651684" x2="237.30337078651684" y1="0" y2="-340"/>
<line stroke="darkgrey" stroke-width="1" x1="242.69662921348313" x2="242.69662921348313" y1="0" y2="-340"/>
<line stroke="darkgrey" stroke-width="1" x1="248.08988764044943" x2="248.08988764044943" y1="0" y2="-340"/>
<line stroke="darkgrey" stroke-width="1" x1="253.48314606741573" x2="253.48314606741573" y1="0" y2="-340"/>
<line stroke="darkgrey" stroke-width="1" x1="258.87640449438203" x2="258.87640449438203" y1="0" y2="-340"/>
<line stroke="darkgrey" stroke-width="1" x1="264.2696629213483" x2="264.2696629213483" y1="0" y2="-340"/>
<line stroke="darkgrey" stroke-width="1" x1="269.6629213483146" x2="269.6629213483146" y1="0" y2="-340"/>
<line stroke="darkgrey" stroke-width="1" x1="275.0561797752809" x2="275.0561797752809" y1="0" y2="-340"/>
<line stroke="darkgrey" stroke-width="1" x1="280.44943820224717" x2="280.44943820224717" y1="0" y2="-340"/>
<line stroke="darkgrey" stroke-width="1" x1="285.8426966292135" x2="285.8426966292135" y1="0" y2="-340"/>
<line stroke="darkgrey" stroke-width="1" x1="291.23595505617976" x2="291.23595505617976" y1="0" y2="-340"/>
<line stroke="darkgrey" stroke-width="1" x1="296.62921348314603" x2="296.62921348314603" y1="0" y2="-340"/>
<line stroke="darkgrey" stroke-width="1" x1="302.02247191011236" x2="302.02247191011236" y1="0" y2="-340"/>
<line stroke="darkgrey" stroke-width="1" x1="307.4157303370786" x2="307.4157303370786" y1="0" y2="-340"/>
<line stroke="darkgrey" stroke-width="1" x1="312.80898876404495" x2="312.80898876404495" y1="0" y2="-340"/>
<line stroke="darkgrey" stroke-width="1" x1="318.2022471910112" x2="318.2022471910112" y1="0" y2="-340"/>
<line stroke="darkgrey" stroke-width="1" x1="323.5955056179775" x2="323.5955056179775" y1="0" y2="-340"/>
<line stroke="darkgrey" stroke-width="1" x1="328.9887640449438" x2="328.9887640449438" y1="0" y2="-340"/>
<line stroke="darkgrey" stroke-width="1" x1="334.3820224719101" x2="334.3820224719101" y1="0" y2="-340"/>
<line stroke="darkgrey" stroke-width="1" x1="339.7752808988764" x2="339.7752808988764" y1="0" y2="-340"/>
<line stroke="darkgrey" stroke-width="1" x1="345.1685393258427" x2="345.1685393258427" y1="0" y2="-340"/>
<line stroke="darkgrey" stroke-width="1" x1="350.56179775280896" x2="350.56179775280896" y1="0" y2="-340"/>
<line stroke="darkgrey" stroke-width="1" x1="355.9550561797753" x2="355.9550561797753" y1="0" y2="-340"/>
<line stroke="darkgrey" stroke-width="1" x1="361.34831460674155" x2="361.34831460674155" y1="0" y2="-340"/>
<line stroke="darkgrey" stroke-width="1" x1="366.7415730337079" x2="366.7415730337079" y1="0" y2="-340"/>
<line stroke="darkgrey" stroke-width="1" x1="372.13483146067415" x2="372.13483146067415" y1="0" y2="-340"/>
<line stroke="darkgrey" stroke-width="1" x1="377.5280898876404" x2="377.5280898876404" y1="0" y2="-340"/>
<line stroke="darkgrey" stroke-width="1" x1="382.92134831460675" x2="382.92134831460675" y1="0" y2="-340"/>
<line stroke="darkgrey" stroke-width="1" x1="388.314606741573" x2="388.314606741573" y1="0" y2="-340"/>
<line stroke="darkgrey" stroke-width="1" x1="393.70786516853934" x2="393.70786516853934" y1="0" y2="-340"/>
<line stroke="darkgrey" stroke-width="1" x1="399.1011235955056" x2="399.1011235955056" y1="0" y2="-340"/>
<line stroke="darkgrey" stroke-width="1" x1="404.4943820224719" x2="404.4943820224719" y1="0" y2="-340"/>
<line stroke="darkgrey" stroke-width="1" x1="409.8876404494382" x2="409.8876404494382" y1="0" y2="-340"/>
<line stroke="darkgrey" stroke-width="1" x1="415.2808988764045" x2="415.2808988764045" y1="0" y2="-340"/>
<line stroke="darkgrey" stroke-width="1" x1="420.67415730337075" x2="420.67415730337075" y1="0" y2="-340"/>
<line stroke="darkgrey" stroke-width="1" x1="426.0674157303371" x2="426.0674157303371" y1="0" y2="-340"/>
<line stroke="darkgrey" stroke-width="1" x1="431.46067415730334" x2="431.46067415730334" y1="0" y2="-340"/>
<line stroke="darkgrey" stroke-width="1" x1="436.85393258426967" x2="436.85393258426967" y1="0" y2="-340"/>
<line stroke="darkgrey" stroke-width="1" x1="442.24719101123594" x2="442.24719101123594" y1="0" y2="-340"/>
<line stroke="darkgrey" stroke-width="1" x1="447.6404494382022" x2="447.6404494382022" y1="0" y2="-340"/>
<line stroke="darkgrey" stroke-width="1" x1="453.03370786516854" x2="453.03370786516854" y1="0" y2="-340"/>
<line stroke="darkgrey" stroke-width="1" x1="458.4269662921348" x2="458.4269662921348" y1="0" y2="-340"/>
<line stroke="darkgrey" stroke-width="1" x1="463.82022471910113" x2="463.82022471910113" y1="0" y2="-340"/>
<line stroke="darkgrey" stroke-width="1" x1="469.2134831460674" x2="469.2134831460674" y1="0" y2="-340"/>
<line stroke="darkgrey" stroke-width="1" x1="474.6067415730337" x2="474.6067415730337" y1="0" y2="-340"/>
<line stroke="darkgrey" stroke-width="1" x1="480" x2="480" y1="0" y2="-340"/>
</g>
<g>
<g>
<path d="M0,-0 L0,-0 L5.393258,-1.7144461 L10.786516,-8.253681 L16.179775,-20.403788 L21.573032,-36.993004 L26.96629,-56.937412 L32.35955,-79.24091 L37.752808,-103.00548 L43.146065,-127.4374 L48.539326,-151.85002 L53.93258,-175.66359 L59.32584,-198.40253 L64.7191,-219.69054 L70.11236,-239.24434 L75.505615,-256.86588 L80.89887,-272.43402 L86.29213,-285.89526 L91.68539,-297.25485 L97.07865,-306.5672 L102.4719,-313.9273 L107.86516,-319.462 L113.25843,-323.32196 L118.65168,-325.67447 L124.04493,-326.69702 L129.4382,-326.57117 L134.83145,-325.4778 L140.22472,-323.59293 L145.61797,-321.08405 L151.01123,-318.10773 L156.4045,-314.8073 L161.79774,-311.31168 L167.19101,-307.73444 L172.58426,-304.17355 L177.97751,-300.71133 L183.37077,-297.4151 L188.76404,-294.33768 L194.1573,-291.51852 L199.55055,-288.9848 L204.9438,-286.75262 L210.33707,-284.82843 L215.73032,-283.21036 L221.12358,-281.88953 L226.51686,-280.85126 L231.91011,-280.07645 L237.30336,-279.5427 L242.69661,-279.22534 L248.08986,-279.09824 L253.48314,-279.13492 L258.8764,-279.30902 L264.26965,-279.595 L269.6629,-279.96857 L275.05615,-280.4072 L280.44943,-280.8902 L285.84268,-281.39908 L291.23593,-281.91766 L296.62918,-282.43192 L302.02246,-282.93018 L307.41574,-283.40292 L312.809,-283.84274 L318.20224,-284.2442 L323.5955,-284.60355 L328.98874,-284.91867 L334.38202,-285.18878 L339.77527,-285.41434 L345.16852,-285.5968 L350.56177,-285.73834 L355.95502,-285.84192 L361.3483,-285.9108 L366.74155,-285.94867 L372.13483,-285.95935 L377.52808,-285.9467 L382.92133,-285.9145 L388.3146,-285.86652 L393.70786,-285.80627 L399.1011,-285.737 L404.49435,-285.66165 L409.8876,-285.58292 L415.28088,-285.5031 L420.67413,-285.4242 L426.06738,-285.34787 L431.46063,-285.27545 L436.8539,-285.20798 L442.24716,-285.1462 L447.64044,-285.0907 L453.03372,-285.0417 L458.42694,-284.99927 L463.82022,-284.96335 L469.21344,-284.93375 L474.60672,-284.91 L480,-284.89172" fill="none" stroke="#FF0000" stroke-linejoin="round" stroke-width="2"/>
</g>
</g>
<g>
<g>
<line stroke="black" stroke-width="1" x1="0" x2="0" y1="0" y2="10"/>
<line stroke="black" stroke-width="1" x1="107.8651616043887" x2="107.8651616043887" y1="0" y2="10"/>
<line stroke="black" stroke-width="1" x1="215.7303232087774" x2="215.7303232087774" y1="0" y2="10"/>
<line stroke="black" stroke-width="1" x1="323.5954848131661" x2="323.5954848131661" y1="0" y2="10"/>
<line stroke="black" stroke-width="1" x1="431.4606464175548" x2="431.4606464175548" y1="0" y2="10"/>
</g>
<line stroke="black" stroke-width="1" x1="0" x2="480" y1="0" y2="0"/>
<g>
<text font-size="12" text-anchor="middle" x="0" y="20">
0
</text>
<text font-size="12" text-anchor="middle" x="107.8651616043887" y="20">
2
</text>
<text font-size="12" text-anchor="middle" x="215.7303232087774" y="20">
4
</text>
<text font-size="12" text-anchor="middle" x="323.5954848131661" y="20">
6
</text>
<text font-size="12" text-anchor="middle" x="431.4606464175548" y="20">
8
</text>
</g>
<text font-size="12" text-anchor="middle" x="240" y="30">
Time (seconds)
</text>
</g>
<g>
<g>
<line stroke="black" stroke-width="1" x1="0" x2="-10" y1="-0" y2="-0"/>
<line stroke="black" stroke-width="1" x1="0" x2="-10" y1="-56.66666666666667" y2="-56.66666666666667"/>
<line stroke="black" stroke-width="1" x1="0" x2="-10" y1="-113.33333333333334" y2="-113.33333333333334"/>
<line stroke="black" stroke-width="1" x1="0" x2="-10" y1="-170" y2="-170"/>
<line stroke="black" stroke-width="1" x1="0" x2="-10" y1="-226.66666666666669" y2="-226.66666666666669"/>
<line stroke="black" stroke-width="1" x1="0" x2="-10" y1="-283.33333333333337" y2="-283.33333333333337"/>
<line stroke="black" stroke-width="1" x1="0" x2="-10" y1="-340" y2="-340"/>
</g>
<line stroke="black" stroke-width="1" x1="0" x2="0" y1="0" y2="-340"/>
<g>
<text dominant-baseline="middle" font-size="12" text-anchor="end" x="-15" y="-0">
0
</text>
<text dominant-baseline="middle" font-size="12" text-anchor="end" x="-15" y="-56.66666666666667">
0.2
</text>
<text dominant-baseline="middle" font-size="12" text-anchor="end" x="-15" y="-113.33333333333334">
0.4
</text>
<text dominant-baseline="middle" font-size="12" text-anchor="end" x="-15" y="-170">
0.6
</text>
<text dominant-baseline="middle" font-size="12" text-anchor="end" x="-15" y="-226.66666666666669">
0.8
</text>
<text dominant-baseline="middle" font-size="12" text-anchor="end" x="-15" y="-283.33333333333337">
1
</text>
<text dominant-baseline="middle" font-size="12" text-anchor="end" x="-15" y="-340">
1.2
</text>
</g>
<text font-size="12" text-anchor="middle" transform="rotate(-90 -36 -170)" x="-36" y="-182">
Plant Out
</text>
</g>
</g>
</svg>