<svg viewBox="0 0 600 400" xmlns="http://www.w3.org/2000/svg">
<g transform="translate(72, 364)">
<g>
<g>
<path d="M0,-0.34826455 L0,-0.34826455 L5.393258,-5.667267 L10.786516,-15.584141 L16.179775,-29.224169 L21.573032,-45.807995 L26.96629,-64.6208 L32.35955,-85.009125 L37.752808,-106.38422 L43.146065,-128.22334 L48.539326,-150.06976 L53.93258,-171.53152 L59.32584,-192.2793 L64.7191,-212.04335 L70.11236,-230.60983 L75.505615,-247.81679 L80.89887,-263.54956 L86.29213,-277.73615 L91.68539,-290.34253 L97.07865,-301.3678 L102.4719,-310.83932 L107.86516,-318.8086 L113.25843,-325.34656 L118.65168,-330.53958 L124.04493,-334.48605 L129.4382,-337.2925 L134.83145,-339.07074 L140.22472,-339.9351 L145.61797,-340 L151.01123,-339.378 L156.4045,-338.17773 L161.79774,-336.503 L167.19101,-334.4511 L172.58426,-332.11243 L177.97751,-329.56955 L183.37077,-326.89706 L188.76404,-324.16122 L194.1573,-321.41992 L199.55055,-318.80804 L204.9438,-316.1613 L210.33707,-312.88736 L215.73032,-308.75275 L221.12358,-303.91467 L226.51686,-298.502 L231.91011,-292.6203 L237.30336,-286.73593 L242.69661,-281.63712 L248.08986,-277.64218 L253.48314,-274.65466 L258.8764,-272.58322 L264.26965,-271.33472 L269.6629,-270.81464 L275.05615,-270.92865 L280.44943,-271.58466 L285.84268,-272.69382 L291.23593,-274.1719 L296.62918,-275.93997 L302.02246,-277.43472 L307.41574,-277.7182 L312.809,-276.53607 L318.20224,-274.1719 L323.5955,-270.86975 L328.98874,-267.29565 L334.38202,-264.4443 L339.77527,-262.68826 L345.16852,-261.8893 L350.56177,-261.92374 L355.95502,-262.67252 L361.3483,-264.02078 L366.74155,-265.85913 L372.13483,-268.08505 L377.52808,-270.60367 L382.92133,-272.8642 L388.3146,-273.95834 L393.70786,-273.6216 L399.1011,-272.10565 L404.49435,-269.6323 L409.8876,-266.41147 L415.28088,-262.63803 L420.67413,-258.89713 L426.06738,-256.081 L431.46063,-254.50381 L436.8539,-254.00458 L442.24716,-254.4372 L447.64044,-255.6616 L453.03372,-257.5433 L458.42694,-259.95526 L463.82022,-262.7789 L469.21344,-265.46805 L474.60672,-267.12408 L480,-267.44" fill="none" stroke="#FF0000" stroke-linejoin="round" stroke-width="2"/>
</g>
</g>
<g transform="translate(380, -340)">
<text font-size="12" text-anchor="start" x="0" y="0">
Arkadaki Araç Hızı
</text>
<line stroke="#FF0000" stroke-width="2" x1="-10" x2="-3" y1="-4" y2="-4"/>
</g>
<g>
<g>
<path d="M0,-0 L0,-0 L5.393258,-3.9892514 L10.786516,-11.426906 L16.179775,-21.656927 L21.573032,-34.094795 L26.96629,-48.20439 L32.35955,-63.495644 L37.752808,-79.526955 L43.146065,-95.90629 L48.539326,-112.291084 L53.93258,-128.38742 L59.32584,-143.94824 L64.7191,-158.77124 L70.11236,-172.69608 L75.505615,-185.60126 L80.89887,-197.40083 L86.29213,-208.0408 L91.68539,-217.49559 L97.07865,-225.76454 L102.4719,-232.86826 L107.86516,-238.84523 L113.25843,-243.7487 L118.65168,-247.64351 L124.04493,-250.60333 L129.4382,-252.7081 L134.83145,-254.0417 L140.22472,-254.68993 L145.61797,-254.73856 L151.01123,-254.27199 L156.4045,-253.37175 L161.79774,-252.1156 L167.19101,-250.57668 L172.58426,-248.82266 L177.97751,-246.91556 L183.37077,-244.91122 L188.76404,-242.85933 L194.1573,-240.80339 L199.55055,-238.78073 L204.9438,-236.82281 L210.33707,-234.95546 L215.73032,-233.19919 L221.12358,-231.56967 L226.51686,-230.07806 L231.91011,-228.73141 L237.30336,-227.53325 L242.69661,-226.48389 L248.08986,-225.58098 L253.48314,-224.81981 L258.8764,-224.19388 L264.26965,-223.69519 L269.6629,-223.31453 L275.05615,-223.04198 L280.44943,-222.867 L285.84268,-222.77887 L291.23593,-222.76683 L296.62918,-222.82025 L302.02246,-222.92894 L307.41574,-223.08305 L312.809,-223.27336 L318.20224,-223.49133 L323.5955,-223.72914 L328.98874,-223.9797 L334.38202,-224.23676 L339.77527,-224.4947 L345.16852,-224.74887 L350.56177,-224.99521 L355.95502,-225.23045 L361.3483,-225.45195 L366.74155,-225.6577 L372.13483,-225.84627 L377.52808,-226.01671 L382.92133,-226.16855 L388.3146,-226.3017 L393.70786,-226.41643 L399.1011,-226.51332 L404.49435,-226.59319 L409.8876,-226.657 L415.28088,-226.70592 L420.67413,-226.74118 L426.06738,-226.76413 L431.46063,-226.77608 L436.8539,-226.77835 L442.24716,-226.7723 L447.64044,-226.7592 L453.03372,-226.74031 L458.42694,-226.71678 L463.82022,-226.68971 L469.21344,-226.66006 L474.60672,-226.62878 L480,-226.59659" fill="none" stroke="#00FF00" stroke-linejoin="round" stroke-width="2"/>
</g>
</g>
<g transform="translate(380, -322)">
<text font-size="12" text-anchor="start" x="0" y="0">
Öndeki Araç Hızı
</text>
<line stroke="#00FF00" stroke-width="2" x1="-10" x2="-3" y1="-4" y2="-4"/>
</g>
<g>
<g>
<line stroke="black" stroke-width="1" x1="0" x2="0" y1="0" y2="10"/>
<line stroke="black" stroke-width="1" x1="107.8651616043887" x2="107.8651616043887" y1="0" y2="10"/>
<line stroke="black" stroke-width="1" x1="215.7303232087774" x2="215.7303232087774" y1="0" y2="10"/>
<line stroke="black" stroke-width="1" x1="323.5954848131661" x2="323.5954848131661" y1="0" y2="10"/>
<line stroke="black" stroke-width="1" x1="431.4606464175548" x2="431.4606464175548" y1="0" y2="10"/>
</g>
<line stroke="black" stroke-width="1" x1="0" x2="480" y1="0" y2="0"/>
<g>
<text font-size="12" text-anchor="middle" x="0" y="20">
0
</text>
<text font-size="12" text-anchor="middle" x="107.8651616043887" y="20">
2
</text>
<text font-size="12" text-anchor="middle" x="215.7303232087774" y="20">
4
</text>
<text font-size="12" text-anchor="middle" x="323.5954848131661" y="20">
6
</text>
<text font-size="12" text-anchor="middle" x="431.4606464175548" y="20">
8
</text>
</g>
<text font-size="12" text-anchor="middle" x="240" y="30">
Time (seconds)
</text>
</g>
<g>
<g>
<line stroke="black" stroke-width="1" x1="0" x2="-10" y1="-0.00000006923961836891712" y2="-0.00000006923961836891712"/>
<line stroke="black" stroke-width="1" x1="0" x2="-10" y1="-76.6258597832369" y2="-76.6258597832369"/>
<line stroke="black" stroke-width="1" x1="0" x2="-10" y1="-153.2517194972342" y2="-153.2517194972342"/>
<line stroke="black" stroke-width="1" x1="0" x2="-10" y1="-229.8775792112315" y2="-229.8775792112315"/>
<line stroke="black" stroke-width="1" x1="0" x2="-10" y1="-306.5034389252288" y2="-306.5034389252288"/>
</g>
<line stroke="black" stroke-width="1" x1="0" x2="0" y1="0" y2="-340"/>
<g>
<text dominant-baseline="middle" font-size="12" text-anchor="end" x="-15" y="-0.00000006923961836891712">
0.13635
</text>
<text dominant-baseline="middle" font-size="12" text-anchor="end" x="-15" y="-76.6258597832369">
10.13635
</text>
<text dominant-baseline="middle" font-size="12" text-anchor="end" x="-15" y="-153.2517194972342">
20.13635
</text>
<text dominant-baseline="middle" font-size="12" text-anchor="end" x="-15" y="-229.8775792112315">
30.13635
</text>
<text dominant-baseline="middle" font-size="12" text-anchor="end" x="-15" y="-306.5034389252288">
40.13635
</text>
</g>
<text font-size="12" text-anchor="middle" transform="rotate(-90 -96 -170)" x="-96" y="-182">
Speed (m/s)
</text>
</g>
</g>
</svg>