<svg viewBox="0 0 600 400" xmlns="http://www.w3.org/2000/svg">
<g transform="translate(72, 364)">
<g>
<g>
<path d="M0,-0 L0,-0 L5.3932586,-0.09472676 L10.786517,-0.46936557 L16.179775,-1.2815502 L21.573034,-2.6449184 L26.966291,-4.6336656 L32.35955,-7.286833 L37.752808,-10.612962 L43.14607,-14.5948105 L48.539326,-19.194016 L53.932583,-24.35557 L59.325844,-30.01206 L64.7191,-36.08757 L70.11236,-42.50123 L75.505615,-49.170322 L80.89888,-56.013023 L86.29214,-62.95067 L91.685394,-69.909615 L97.07865,-76.82273 L102.47191,-83.63043 L107.865166,-90.28143 L113.25843,-96.73316 L118.65169,-102.951866 L124.044945,-108.9125 L129.4382,-114.59837 L134.83147,-120.00069 L140.22472,-125.11786 L145.61798,-129.9548 L151.01123,-134.52213 L156.4045,-138.83525 L161.79776,-142.91359 L167.19101,-146.77968 L172.58427,-150.45834 L177.97752,-153.97589 L183.37079,-157.35948 L188.76404,-160.6363 L194.1573,-163.83316 L199.55057,-166.83833 L204.94382,-169.40169 L210.33708,-171.42413 L215.73033,-172.9542 L221.1236,-174.03337 L226.51686,-174.9039 L231.91011,-176.01115 L237.30338,-177.57388 L242.69662,-179.58585 L248.08989,-182.03874 L253.48314,-184.91827 L258.8764,-188.20401 L264.26965,-191.87044 L269.66293,-195.88805 L275.05618,-200.22423 L280.44943,-204.84428 L285.84268,-209.71222 L291.23596,-214.43227 L296.6292,-218.28632 L302.02246,-221.0132 L307.41574,-222.76418 L312.809,-223.68568 L318.20224,-224.29463 L323.59552,-225.42796 L328.98877,-227.44083 L334.38202,-230.26031 L339.77527,-233.81827 L345.16855,-238.0433 L350.5618,-242.86058 L355.95505,-248.19359 L361.34833,-253.96568 L366.74158,-260.10144 L372.13483,-266.09198 L377.52808,-271.04272 L382.92136,-274.6189 L388.3146,-276.9963 L393.70786,-278.35196 L399.10114,-278.8629 L404.4944,-278.70227 L409.88763,-278.472 L415.28088,-279.14017 L420.67416,-281.09006 L426.0674,-284.19403 L431.46066,-288.33228 L436.85394,-293.3837 L442.2472,-299.22595 L447.64044,-305.7378 L453.03372,-312.8011 L458.42697,-319.77792 L463.82022,-325.57257 L469.21347,-329.7667 L474.60675,-332.55502 L480,-334.1347" fill="none" stroke="#FF0000" stroke-linejoin="round" stroke-width="2"/>
</g>
</g>
<g transform="translate(380, -340)">
<text font-size="12" text-anchor="start" x="0" y="0">
Arkadaki Araç Mutlak Mesafesi
</text>
<line stroke="#FF0000" stroke-width="2" x1="-10" x2="-3" y1="-4" y2="-4"/>
</g>
<g>
<g>
<path d="M0,-54.070724 L0,-54.070724 L5.3932586,-54.141773 L10.786517,-54.422752 L16.179775,-55.03189 L21.573034,-56.054417 L26.966291,-57.545975 L32.35955,-59.53585 L37.752808,-62.03045 L43.14607,-65.01684 L48.539326,-68.46624 L53.932583,-72.3374 L59.325844,-76.57977 L64.7191,-81.136406 L70.11236,-85.94665 L75.505615,-90.94847 L80.89888,-96.08049 L86.29214,-101.28373 L91.685394,-106.50294 L97.07865,-111.687775 L102.47191,-116.79355 L107.865166,-121.7818 L113.25843,-126.6206 L118.65169,-131.28462 L124.044945,-135.7551 L129.4382,-140.0195 L134.83147,-144.07124 L140.22472,-147.90912 L145.61798,-151.53683 L151.01123,-154.96231 L156.4045,-158.19716 L161.79776,-161.25592 L167.19101,-164.15549 L172.58427,-166.91447 L177.97752,-169.55264 L183.37079,-172.09033 L188.76404,-174.54796 L194.1573,-176.94559 L199.55057,-179.30258 L204.94382,-181.63719 L210.33708,-183.96642 L215.73033,-186.30565 L221.1236,-188.66866 L226.51686,-191.06738 L231.91011,-193.51201 L237.30338,-196.01082 L242.69662,-198.5703 L248.08989,-201.19522 L253.48314,-203.8887 L258.8764,-206.6523 L264.26965,-209.4862 L269.66293,-212.38934 L275.05618,-215.35951 L280.44943,-218.39363 L285.84268,-221.48778 L291.23596,-224.63742 L296.6292,-227.83754 L302.02246,-231.08282 L307.41574,-234.36772 L312.809,-237.6866 L318.20224,-241.03389 L323.59552,-244.40411 L328.98877,-247.79204 L334.38202,-251.19267 L339.77527,-254.60141 L345.16855,-258.01398 L350.5618,-261.42657 L355.95505,-264.83575 L361.34833,-268.2386 L366.74158,-271.63257 L372.13483,-275.0156 L377.52808,-278.38605 L382.92136,-281.74268 L388.3146,-285.08463 L393.70786,-288.41138 L399.10114,-291.72272 L404.4944,-295.0188 L409.88763,-298.2999 L415.28088,-301.56662 L420.67416,-304.8197 L426.0674,-308.05997 L431.46066,-311.28848 L436.85394,-314.5063 L442.2472,-317.71454 L447.64044,-320.91437 L453.03372,-324.10696 L458.42697,-327.29346 L463.82022,-330.47498 L469.21347,-333.6526 L474.60675,-336.82727 L480,-340" fill="none" stroke="#00FF00" stroke-linejoin="round" stroke-width="2"/>
</g>
</g>
<g transform="translate(380, -322)">
<text font-size="12" text-anchor="start" x="0" y="0">
Öndeki Araç Mutlak Mesafesi
</text>
<line stroke="#00FF00" stroke-width="2" x1="-10" x2="-3" y1="-4" y2="-4"/>
</g>
<g>
<g>
<line stroke="black" stroke-width="1" x1="0" x2="0" y1="0" y2="10"/>
<line stroke="black" stroke-width="1" x1="107.86516853932584" x2="107.86516853932584" y1="0" y2="10"/>
<line stroke="black" stroke-width="1" x1="215.73033707865167" x2="215.73033707865167" y1="0" y2="10"/>
<line stroke="black" stroke-width="1" x1="323.5955056179775" x2="323.5955056179775" y1="0" y2="10"/>
<line stroke="black" stroke-width="1" x1="431.46067415730334" x2="431.46067415730334" y1="0" y2="10"/>
</g>
<line stroke="black" stroke-width="1" x1="0" x2="480" y1="0" y2="0"/>
<g>
<text font-size="12" text-anchor="middle" x="0" y="20">
0
</text>
<text font-size="12" text-anchor="middle" x="107.86516853932584" y="20">
2
</text>
<text font-size="12" text-anchor="middle" x="215.73033707865167" y="20">
4
</text>
<text font-size="12" text-anchor="middle" x="323.5955056179775" y="20">
6
</text>
<text font-size="12" text-anchor="middle" x="431.46067415730334" y="20">
8
</text>
</g>
<text font-size="12" text-anchor="middle" x="240" y="30">
Time (seconds)
</text>
</g>
<g>
<g>
<line stroke="black" stroke-width="1" x1="0" x2="-10" y1="-0" y2="-0"/>
<line stroke="black" stroke-width="1" x1="0" x2="-10" y1="-108.14145278028066" y2="-108.14145278028066"/>
<line stroke="black" stroke-width="1" x1="0" x2="-10" y1="-216.28290556056132" y2="-216.28290556056132"/>
<line stroke="black" stroke-width="1" x1="0" x2="-10" y1="-324.424358340842" y2="-324.424358340842"/>
</g>
<line stroke="black" stroke-width="1" x1="0" x2="0" y1="0" y2="-340"/>
<g>
<text dominant-baseline="middle" font-size="12" text-anchor="end" x="-15" y="-0">
0
</text>
<text dominant-baseline="middle" font-size="12" text-anchor="end" x="-15" y="-108.14145278028066">
100
</text>
<text dominant-baseline="middle" font-size="12" text-anchor="end" x="-15" y="-216.28290556056132">
200
</text>
<text dominant-baseline="middle" font-size="12" text-anchor="end" x="-15" y="-324.424358340842">
300
</text>
</g>
<text font-size="12" text-anchor="middle" transform="rotate(-90 -36 -170)" x="-36" y="-182">
Absolute Position (m)
</text>
</g>
</g>
</svg>