<svg viewBox="0 0 600 400" xmlns="http://www.w3.org/2000/svg">
<g transform="translate(72, 364)">
<g>
<g>
<path d="M0,-0.34826428 L0,-0.34826428 L5.3932586,-5.667263 L10.786517,-15.584129 L16.179775,-29.224148 L21.573034,-45.807964 L26.966291,-64.62075 L32.35955,-85.00908 L37.752808,-106.38418 L43.14607,-128.2233 L48.539326,-150.06972 L53.932583,-171.53151 L59.325844,-192.2793 L64.7191,-212.04335 L70.11236,-230.60985 L75.505615,-247.8168 L80.89888,-263.5496 L86.29214,-277.73624 L91.685394,-290.34268 L97.07865,-301.36795 L102.47191,-310.83957 L107.865166,-318.80887 L113.25843,-325.3468 L118.65169,-330.53986 L124.044945,-334.48627 L129.4382,-337.29266 L134.83147,-339.07083 L140.22472,-339.93512 L145.61798,-340 L151.01123,-339.37793 L156.4045,-338.17764 L161.79776,-336.50287 L167.19101,-334.45102 L172.58427,-332.11237 L177.97752,-329.56952 L183.37079,-326.89706 L188.76404,-324.1612 L194.1573,-321.4199 L199.55057,-318.45972 L204.94382,-314.83148 L210.33708,-310.40656 L215.73033,-305.33066 L221.1236,-299.72314 L226.51686,-294.03064 L231.91011,-288.99298 L237.30338,-284.91782 L242.69662,-281.73114 L248.08989,-279.3622 L253.48314,-277.73727 L258.8764,-276.77966 L264.26965,-276.41168 L269.66293,-276.55606 L275.05618,-277.1374 L280.44943,-278.08316 L285.84268,-279.32468 L291.23596,-280.32614 L296.6292,-280.1755 L302.02246,-278.60406 L307.41574,-275.8746 L312.809,-272.2259 L318.20224,-268.3255 L323.59552,-265.1744 L328.98877,-263.1483 L334.38202,-262.10938 L339.77527,-261.93402 L345.16855,-262.5027 L350.5618,-263.69946 L355.95505,-265.41364 L361.34833,-267.54105 L366.74158,-269.9848 L372.13483,-272.2086 L377.52808,-273.3163 L382.92136,-273.02106 L388.3146,-271.55426 L393.70786,-269.13586 L399.10114,-265.97406 L404.4944,-262.26202 L409.88763,-258.58276 L415.28088,-255.82584 L420.67416,-254.30396 L426.0674,-253.85573 L431.46066,-254.33478 L436.85394,-255.60081 L442.2472,-257.51932 L447.64044,-259.96326 L453.03372,-262.81415 L458.42697,-265.5259 L463.82022,-267.20056 L469.21347,-267.53317 L474.60675,-266.72632 L480,-264.9753" fill="none" stroke="#FF0000" stroke-linejoin="round" stroke-width="2"/>
</g>
</g>
<g transform="translate(380, -340)">
<text font-size="12" text-anchor="start" x="0" y="0">
Arkadaki Araç Hızı
</text>
<line stroke="#FF0000" stroke-width="2" x1="-10" x2="-3" y1="-4" y2="-4"/>
</g>
<g>
<g>
<path d="M0,-0 L0,-0 L5.3932586,-3.989249 L10.786517,-11.426899 L16.179775,-21.656912 L21.573034,-34.094772 L26.966291,-48.204365 L32.35955,-63.495613 L37.752808,-79.52693 L43.14607,-95.90627 L48.539326,-112.29109 L53.932583,-128.38744 L59.325844,-143.94827 L64.7191,-158.77132 L70.11236,-172.69618 L75.505615,-185.60141 L80.89888,-197.40099 L86.29214,-208.04097 L91.685394,-217.4958 L97.07865,-225.76477 L102.47191,-232.86847 L107.865166,-238.84544 L113.25843,-243.7489 L118.65169,-247.64369 L124.044945,-250.6035 L129.4382,-252.70828 L134.83147,-254.04192 L140.22472,-254.69014 L145.61798,-254.7388 L151.01123,-254.27223 L156.4045,-253.37204 L161.79776,-252.11597 L167.19101,-250.57706 L172.58427,-248.82307 L177.97752,-246.91595 L183.37079,-244.91159 L188.76404,-242.8597 L194.1573,-240.80371 L199.55057,-238.78102 L204.94382,-236.82309 L210.33708,-234.95573 L215.73033,-233.1995 L221.1236,-231.57 L226.51686,-230.07841 L231.91011,-228.7318 L237.30338,-227.53365 L242.69662,-226.48428 L248.08989,-225.58136 L253.48314,-224.82019 L258.8764,-224.19426 L264.26965,-223.69556 L269.66293,-223.3149 L275.05618,-223.04231 L280.44943,-222.86734 L285.84268,-222.77922 L291.23596,-222.76718 L296.6292,-222.82063 L302.02246,-222.92929 L307.41574,-223.08339 L312.809,-223.2737 L318.20224,-223.49167 L323.59552,-223.72948 L328.98877,-223.98003 L334.38202,-224.23703 L339.77527,-224.49498 L345.16855,-224.74913 L350.5618,-224.99547 L355.95505,-225.23068 L361.34833,-225.45216 L366.74158,-225.65788 L372.13483,-225.84642 L377.52808,-226.01685 L382.92136,-226.16866 L388.3146,-226.3018 L393.70786,-226.41656 L399.10114,-226.51347 L404.4944,-226.59335 L409.88763,-226.6572 L415.28088,-226.70613 L420.67416,-226.74141 L426.0674,-226.76433 L431.46066,-226.77625 L436.85394,-226.7785 L442.2472,-226.77245 L447.64044,-226.75935 L453.03372,-226.74046 L458.42697,-226.71695 L463.82022,-226.68987 L469.21347,-226.66023 L474.60675,-226.6289 L480,-226.59673" fill="none" stroke="#00FF00" stroke-linejoin="round" stroke-width="2"/>
</g>
</g>
<g transform="translate(380, -322)">
<text font-size="12" text-anchor="start" x="0" y="0">
Öndeki Araç Hızı
</text>
<line stroke="#00FF00" stroke-width="2" x1="-10" x2="-3" y1="-4" y2="-4"/>
</g>
<g>
<g>
<line stroke="black" stroke-width="1" x1="0" x2="0" y1="0" y2="10"/>
<line stroke="black" stroke-width="1" x1="107.86516853932584" x2="107.86516853932584" y1="0" y2="10"/>
<line stroke="black" stroke-width="1" x1="215.73033707865167" x2="215.73033707865167" y1="0" y2="10"/>
<line stroke="black" stroke-width="1" x1="323.5955056179775" x2="323.5955056179775" y1="0" y2="10"/>
<line stroke="black" stroke-width="1" x1="431.46067415730334" x2="431.46067415730334" y1="0" y2="10"/>
</g>
<line stroke="black" stroke-width="1" x1="0" x2="480" y1="0" y2="0"/>
<g>
<text font-size="12" text-anchor="middle" x="0" y="20">
0
</text>
<text font-size="12" text-anchor="middle" x="107.86516853932584" y="20">
2
</text>
<text font-size="12" text-anchor="middle" x="215.73033707865167" y="20">
4
</text>
<text font-size="12" text-anchor="middle" x="323.5955056179775" y="20">
6
</text>
<text font-size="12" text-anchor="middle" x="431.46067415730334" y="20">
8
</text>
</g>
<text font-size="12" text-anchor="middle" x="240" y="30">
Time (seconds)
</text>
</g>
<g>
<g>
<line stroke="black" stroke-width="1" x1="0" x2="-10" y1="0.00000000000000021267933599793647" y2="0.00000000000000021267933599793647"/>
<line stroke="black" stroke-width="1" x1="0" x2="-10" y1="-76.6258062679769" y2="-76.6258062679769"/>
<line stroke="black" stroke-width="1" x1="0" x2="-10" y1="-153.2516125359538" y2="-153.2516125359538"/>
<line stroke="black" stroke-width="1" x1="0" x2="-10" y1="-229.87741880393068" y2="-229.87741880393068"/>
<line stroke="black" stroke-width="1" x1="0" x2="-10" y1="-306.5032250719076" y2="-306.5032250719076"/>
</g>
<line stroke="black" stroke-width="1" x1="0" x2="0" y1="0" y2="-340"/>
<g>
<text dominant-baseline="middle" font-size="12" text-anchor="end" x="-15" y="0.00000000000000021267933599793647">
0.13635
</text>
<text dominant-baseline="middle" font-size="12" text-anchor="end" x="-15" y="-76.6258062679769">
10.13635
</text>
<text dominant-baseline="middle" font-size="12" text-anchor="end" x="-15" y="-153.2516125359538">
20.13635
</text>
<text dominant-baseline="middle" font-size="12" text-anchor="end" x="-15" y="-229.87741880393068">
30.13635
</text>
<text dominant-baseline="middle" font-size="12" text-anchor="end" x="-15" y="-306.5032250719076">
40.13635
</text>
</g>
<text font-size="12" text-anchor="middle" transform="rotate(-90 -96 -170)" x="-96" y="-182">
Speed (m/s)
</text>
</g>
</g>
</svg>